<svg xmlns="http://www.w3.org/2000/svg" viewBox="0 0 24 24" fill="none">
  <path d="M16.2 12.9c.03 1.6 1.4 2.1 1.42 2.12-.01.04-.22.75-.73 1.49-.44.64-.9 1.28-1.63 1.29-.71.01-.94-.42-1.75-.42-.81 0-1.07.41-1.74.43-.7.02-1.23-.7-1.67-1.34-.92-1.34-1.62-3.78-.67-5.44.47-.82 1.31-1.34 2.22-1.35.69-.01 1.35.46 1.74.46.4 0 1.15-.57 1.94-.49.33.01 1.26.13 1.86.98-.05.03-1.11.65-1.1 1.96z" fill="currentColor"/>
  <path d="M14.7 6.2c.35-.42.58-1 .51-1.58-.5.02-1.1.33-1.46.75-.32.37-.6.96-.52 1.52.56.04 1.12-.28 1.47-.69z" fill="currentColor"/>
  <path d="M7.3 17.8a.8.8 0 0 1-.7-.4l-.7-1.2h-2a.8.8 0 1 1 0-1.6h2.9l2.7-4.8h-4.6a.8.8 0 1 1 0-1.6h5.5l.8-1.4a.8.8 0 1 1 1.4.8l-3.4 6h2.5a.8.8 0 1 1 0 1.6h-3.4l-.7 1.2a.8.8 0 0 1-.7.4z" fill="currentColor"/>
</svg>
